#!OML:ASF \\sashay\E\Suitcase\Project 1\Capture day 1\Session 1\Male1.ASF
:FULLY-SPECIFIED
:DEGREES
267
root 0.616452 17.6518 -33.9642 6.41393 -3.43135 1.69645
lowerback 15.8293 -3.65622 11.2326
upperback 6.1808 -2.68054 13.6451
thorax -1.97199 -1.38487 9.04831
lowerneck -8.40946 -11.3785 -4.48668
upperneck 25.7337 -15.3423 0.266664
head 9.91554 -7.40568 -0.868717
rclavicle 4.29375e-014 8.5875e-014
rhumerus -9.02902 -16.2787 -54.0063
rradius 25.778
rwrist 3.16453
rhand -16.8445 18.4389
rfingers 7.12502
rthumb 9.38535 -11.3322
lclavicle 4.29375e-014 8.5875e-014
lhumerus -28.5314 -9.5705 99.7262
lradius 48.6284
lwrist 2.69534
lhand -3.97171 40.9607
lfingers 7.12502
lthumb 21.7811 69.7551
rfemur -18.0816 -0.137993 17.7357
rtibia 27.6183
rfoot -16.1246 -5.03975
rtoes 10.8721
lfemur -16.3212 -0.487189 -20.4025
ltibia 26.1766
lfoot -15.6396 5.75399
ltoes -0.333518
268
root 0.601926 17.6474 -33.9577 6.2248 -3.19153 1.62778
lowerback 15.9752 -3.78504 11.4214
upperback 6.21211 -2.79626 13.5016
thorax -2.02266 -1.43622 8.80714
lowerneck -8.82831 -11.3059 -4.42106
upperneck 25.899 -15.3039 0.491117
head 10.067 -7.3468 -0.835347
rclavicle 1.43125e-014 -1.17681e-013
rhumerus -8.90946 -16.1262 -54.2282
rradius 25.7029
rwrist 2.00596
rhand -15.7885 17.363
rfingers 7.12502
rthumb 10.4042 -12.3596
lclavicle 1.43125e-014 -1.17681e-013
lhumerus -28.5867 -9.66529 99.5222
lradius 48.4882
lwrist 2.55474
lhand -4.458 40.1992
lfingers 7.12502
lthumb 21.3141 69.0471
rfemur -17.7573 -0.0830941 17.8454
rtibia 27.5829
rfoot -16.3612 -5.09112
rtoes 11.7227
lfemur -16.0816 -0.41354 -20.2449
ltibia 26.3108
lfoot -16.0782 5.43373
ltoes 0.387402
269
root 0.582293 17.6358 -33.958 6.21313 -3.30798 1.54659
lowerback 15.9842 -3.71605 11.4052
upperback 6.17648 -2.70602 13.3545
thorax -2.0828 -1.38988 8.62766
lowerneck -8.71881 -11.1823 -4.21964
upperneck 25.8905 -15.1619 0.463951
head 10.0187 -7.27092 -0.847606
rclavicle 4.77083e-014 -1.59028e-014
rhumerus -8.79637 -16.8497 -54.4359
rradius 25.0485
rwrist 2.14311
rhand -14.5983 17.4
rfingers 7.12502
rthumb 11.5522 -12.2616
lclavicle 4.77083e-014 -1.59028e-014
lhumerus -28.8439 -9.84874 99.3692
lradius 48.5731
lwrist 2.64393
lhand -4.0954 40.8474
lfingers 7.12502
lthumb 21.6623 69.6556
rfemur -17.719 -0.153299 18.0471
rtibia 27.5153
rfoot -16.2279 -5.0348
rtoes 10.8973
lfemur -16.1286 -0.108603 -20.1006
ltibia 26.4906
lfoot -16.2634 5.77723
ltoes -2.7489
270
root 0.565483 17.6438 -33.9512 6.25903 -3.2303 1.25672
lowerback 16.1766 -3.5607 11.5939
upperback 5.98187 -2.39374 13.4037
thorax -2.42572 -1.2379 8.54374
lowerneck -9.18133 -11.1748 -3.77902
upperneck 26.2846 -15.1133 -0.0430206
head 10.1629 -7.24866 -1.11885
rclavicle 1.90833e-014 7.95139e-014
rhumerus -9.68794 -15.7811 -54.0294
rradius 25.5654
rwrist 0.571275
rhand -13.7652 16.4173
rfingers 7.12502
rthumb 12.3555 -13.1976
lclavicle 1.90833e-014 7.95139e-014
lhumerus -29.2841 -10.2732 99.6426
lradius 48.5845
lwrist 2.70225
lhand -4.30431 40.8774
lfingers 7.12502
lthumb 21.4617 69.7085
rfemur -17.6196 0.0776772 18.4002
rtibia 27.4694
rfoot -16.4378 -5.1307
rtoes 11.4273
lfemur -16.1142 -0.373957 -19.604
ltibia 26.6496
lfoot -16.71 5.27559
ltoes 1.33904
271
root 0.551101 17.6408 -33.9524 6.22558 -3.16739 1.19951
lowerback 16.2303 -3.57591 11.3689
upperback 6.00035 -2.43871 13.4574
thorax -2.42118 -1.26377 8.74472
lowerneck -9.35613 -10.8892 -3.66335
upperneck 26.1297 -14.6988 -0.116303
head 10.1139 -7.06151 -1.1153
rclavicle -2.8625e-014 -3.81667e-014
rhumerus -9.38179 -15.2647 -53.9867
rradius 25.135
rwrist 0.482683
rhand -13.2138 15.789
rfingers 7.12502
rthumb 12.8871 -13.7931
lclavicle -2.8625e-014 -3.81667e-014
lhumerus -29.1839 -10.0657 99.6709
lradius 48.4121
lwrist 2.75072
lhand -4.40627 40.1686
lfingers 7.12502
lthumb 21.3638 69.0109
rfemur -17.6171 0.147414 18.4935
rtibia 27.5208
rfoot -16.5791 -5.10641
rtoes 12.3235
lfemur -16.1323 -0.114056 -19.4873
ltibia 26.7582
lfoot -16.7633 5.0362
ltoes 0.319276
272
root 0.530292 17.6353 -33.9504 6.21818 -3.13745 1.19705
lowerback 16.2487 -3.53352 11.0379
upperback 5.98831 -2.42693 13.5196
thorax -2.43177 -1.26301 9.00278
lowerneck -9.19261 -10.5625 -3.76405
upperneck 25.6905 -14.2477 0.0776947
head 9.93965 -6.85884 -0.954745
rclavicle 6.36111e-015 2.8625e-014
rhumerus -9.22353 -14.8014 -53.9284
rradius 24.7075
rwrist 0.135261
rhand -12.3038 16.1274
rfingers 7.12502
rthumb 13.7642 -13.3973
lclavicle 6.36111e-015 2.8625e-014
lhumerus -29.0955 -9.92608 99.7988
lradius 48.1154
lwrist 2.64
lhand -4.24524 40.1062
lfingers 7.12502
lthumb 21.5184 68.9309
rfemur -17.5988 0.220173 18.5579
rtibia 27.537
rfoot -16.7063 -5.08609
rtoes 12.3962
lfemur -16.2067 -0.180482 -19.3597
ltibia 26.8671
lfoot -16.951 4.86554
ltoes 0.487896
273
root 0.519853 17.6259 -33.943 6.21629 -3.28679 1.20223
lowerback 16.2381 -3.48427 10.7944
upperback 6.02206 -2.41079 13.5339
thorax -2.3818 -1.25848 9.15066
lowerneck -9.35284 -10.4684 -3.94198
upperneck 25.4537 -14.0759 0.125604
head 9.89945 -6.79531 -0.894415
rclavicle -2.22639e-014 8.5875e-014
rhumerus -8.87564 -14.4656 -53.9794
rradius 24.1284
rwrist 0.131526
rhand -11.9767 16.2144
rfingers 7.12502
rthumb 14.0794 -13.2886
lclavicle -2.22639e-014 8.5875e-014
lhumerus -29.1578 -9.62406 99.8432
lradius 48.0225
lwrist 2.50323
lhand -4.22522 40.5945
lfingers 7.12502
lthumb 21.5377 69.417
rfemur -17.6494 0.212074 18.5845
rtibia 27.6848
rfoot -16.7206 -4.91247
rtoes 13.2782
lfemur -16.169 0.0634285 -19.345
ltibia 26.9146
lfoot -17.067 4.85762
ltoes 0.386703
274
root 0.504071 17.6229 -33.9335 6.12483 -3.0881 1.1489
lowerback 16.1628 -3.58464 10.7028
upperback 6.05977 -2.57712 13.5393
thorax -2.28253 -1.34109 9.23351
lowerneck -9.80254 -10.1419 -3.74159
upperneck 25.5532 -13.5388 -0.297217
head 9.95783 -6.57372 -1.03181
rclavicle 1.11319e-014 1.90833e-014
rhumerus -8.91686 -13.2359 -54.0128
rradius 24.0091
rwrist -0.409825
rhand -11.4667 16.2826
rfingers 7.12502
rthumb 14.5708 -13.1856
lclavicle 1.11319e-014 1.90833e-014
lhumerus -29.1781 -9.44742 99.817
lradius 47.8108
lwrist 2.30523
lhand -3.60187 40.8398
lfingers 7.12502
lthumb 22.1362 69.5925
rfemur -17.5173 0.0624262 18.7238
rtibia 27.7895
rfoot -16.8783 -4.84298
rtoes 12.9193
lfemur -16.0853 0.0355655 -19.1774
ltibia 27.0176
lfoot -17.2411 4.51364
ltoes 0.44099
275
root 0.480203 17.6137 -33.9347 6.16648 -3.0341 1.04317
lowerback 16.2134 -3.45892 10.593
upperback 6.00787 -2.40988 13.5108
thorax -2.37989 -1.25901 9.23498
lowerneck -9.73275 -10.1694 -3.72609
upperneck 25.2481 -13.6346 -0.0185094
head 9.85764 -6.59202 -0.937424
rclavicle 4.45278e-014 6.04305e-014
rhumerus -9.15092 -13.0395 -54.043
rradius 23.6878
rwrist -0.59301
rhand -11.3904 16.3145
rfingers 7.12502
rthumb 14.6444 -13.1484
lclavicle 4.45278e-014 6.04305e-014
lhumerus -29.2044 -9.77698 99.8112
lradius 47.6237
lwrist 2.4174
lhand -3.9687 40.6113
lfingers 7.12502
lthumb 21.784 69.4053
rfemur -17.5393 0.208362 18.9416
rtibia 27.8324
rfoot -16.9484 -4.9926
rtoes 13.0754
lfemur -16.2296 0.288631 -18.9661
ltibia 27.1591
lfoot -17.3153 4.33326
ltoes -0.798875
276
root 0.463461 17.6107 -33.931 6.0504 -3.22265 0.823223
lowerback 16.3675 -3.32432 10.421
upperback 5.95345 -2.21871 13.612
thorax -2.52852 -1.16974 9.42902
lowerneck -9.30091 -10.0036 -3.85546
upperneck 24.7433 -13.3729 0.0101406
head 9.6035 -6.49878 -0.833378
rclavicle 5.08889e-014 2.22639e-014
rhumerus -9.57291 -12.1345 -53.8725
rradius 23.6058
rwrist -1.2939
rhand -11.0355 16.3654
rfingers 7.12502
rthumb 14.9863 -13.0723
lclavicle 5.08889e-014 2.22639e-014
lhumerus -29.5209 -9.4351 100.019
lradius 47.525
lwrist 1.95299
lhand -3.94904 40.2988
lfingers 7.12502
lthumb 21.8029 69.0907
rfemur -17.4568 0.429788 19.2453
rtibia 27.8686
rfoot -16.9555 -4.95227
rtoes 12.6733
lfemur -16.1172 0.38101 -18.6309
ltibia 27.2851
lfoot -17.575 4.22159
ltoes 0.810955
